<?xml version="1.0" encoding="utf-8"?>
<!-- Generator: Adobe Illustrator 24.3.0, SVG Export Plug-In . SVG Version: 6.00 Build 0)  -->
<svg version="1.1" id="Capa_1" xmlns="http://www.w3.org/2000/svg" xmlns:xlink="http://www.w3.org/1999/xlink" x="0px" y="0px"
	 viewBox="0 0 400 300" style="enable-background:new 0 0 400 300;" xml:space="preserve">
<style type="text/css">
	.st0{fill:#ff2c2c;}
</style>
<g>
	<path class="st0" d="M92.3,256.7V40.3h0c0.7,119,97.4,215.8,216.4,216.4v0H92.3z"/>
	<path d="M93.5,72.4c14.5,94,89,168.6,183,183h-183V72.4 M93.5,39H91v219h219v-2.5C190.5,255.5,93.5,158.5,93.5,39L93.5,39z"/>
</g>
<g>
	<path class="st0" d="M308.7,256.7C308,137.7,211.3,41,92.3,40.3v0h216.5L308.7,256.7L308.7,256.7z"/>
	<path d="M307.5,41.5v183c-14.5-94-89-168.6-183-183H307.5 M310,39H91v2.5c119.5,0,216.5,96.9,216.5,216.5h2.5V39L310,39z"/>
</g>
</svg>
